# File created by Blade
# Date/Time:  Wed Apr 08 17:17:01 2015
# Frame Rate: 120.000 fps
#------------------------------------------------------
:FULLY-SPECIFIED
:DEGREES
1061
root 8.775353 37.540022 4.931099 158.088960 -43.761956 -142.204198
Spine 9.779633 -4.147137 0.442661
Head 4.135787 -2.807863 23.309758
LeftShoulder -6.842137 14.811927 19.552273
LeftArm 16.505602 31.124558 -74.047746
LeftForeArm 30.336904 -0.000000 26.842087
LeftHand -10.023501 -0.000000 -20.145272
LeftHandThumb1 -26.253704 0.000000 33.147579
RightShoulder -41.350564 -48.249634 31.743246
RightArm 46.089691 -17.624037 64.365052
RightForeArm 30.744146 -0.000000 4.338750
RightHand -3.075498 -0.000000 6.775957
RightHandThumb1 -24.326973 -0.000000 -32.862282
LeftUpLeg -15.577373 43.576162 17.355570
LeftLeg 23.136928 -0.000000 -0.000000
LeftFoot -20.923584 -0.870998 -18.863629
LeftToeBase -2.151983 -0.000000 0.000000
RightUpLeg 4.316373 -13.043136 -32.212230
RightLeg 142.707945 -0.000000 -0.000000
RightFoot 37.440262 9.832785 17.403287
RightToeBase 6.363580 -0.000000 -0.000000
1062
root 8.795878 37.573998 4.907645 157.937624 -43.791406 -142.019082
Spine 9.695222 -4.242460 0.465093
Head 4.201881 -2.764962 23.344011
LeftShoulder -6.860920 14.816529 19.526662
LeftArm 16.566839 31.283628 -73.974359
LeftForeArm 30.225213 0.000000 26.917674
LeftHand -10.023452 -0.000000 -19.981705
LeftHandThumb1 -26.253704 0.000000 33.147579
RightShoulder -41.347428 -48.218170 31.739078
RightArm 46.076908 -17.439063 64.520754
RightForeArm 30.453107 -0.000000 3.995155
RightHand -3.010034 -0.000000 6.639632
RightHandThumb1 -24.326973 -0.000000 -32.862282
LeftUpLeg -15.350113 43.679096 17.523963
LeftLeg 22.678093 -0.000000 -0.000000
LeftFoot -20.717957 -1.129468 -19.050274
LeftToeBase -2.613750 -0.000000 0.000000
RightUpLeg 4.484783 -12.952836 -32.186755
RightLeg 142.531534 -0.000000 -0.000000
RightFoot 37.342145 9.873898 17.407180
RightToeBase 6.366232 -0.000000 -0.000000
1063
root 8.816610 37.605825 4.883925 157.801315 -43.832407 -141.840947
Spine 9.605501 -4.324382 0.477820
Head 4.238480 -2.758642 23.379693
LeftShoulder -6.847589 14.800073 19.543733
LeftArm 16.605083 31.346686 -73.984648
LeftForeArm 30.264328 -0.000000 26.950304
LeftHand -9.958721 -0.000000 -20.002060
LeftHandThumb1 -26.253704 0.000000 33.147579
RightShoulder -41.351911 -48.166879 31.741623
RightArm 46.070753 -17.350535 64.598842
RightForeArm 30.255127 0.000000 3.676328
RightHand -2.949523 0.000000 6.454909
RightHandThumb1 -24.326973 -0.000000 -32.862282
LeftUpLeg -15.161197 43.867890 17.667064
LeftLeg 22.255583 -0.000000 -0.000000
LeftFoot -20.512544 -1.473521 -19.249514
LeftToeBase -2.796972 -0.000000 0.000000
RightUpLeg 4.629645 -12.880252 -32.153028
RightLeg 142.365447 -0.000000 -0.000000
RightFoot 37.333701 9.928261 17.317862
RightToeBase 6.196824 -0.000000 -0.000000
1064
root 8.838608 37.637325 4.860920 157.681818 -43.879541 -141.663680
Spine 9.500565 -4.410163 0.487470
Head 4.263619 -2.749282 23.418405
LeftShoulder -6.846437 14.753709 19.573631
LeftArm 16.640767 31.463768 -73.979980
LeftForeArm 30.215336 -0.000000 26.964355
LeftHand -9.882654 -0.000000 -20.031703
LeftHandThumb1 -26.253704 0.000000 33.147579
RightShoulder -41.388077 -48.134232 31.775673
RightArm 46.124162 -17.376343 64.553287
RightForeArm 30.254843 -0.000000 3.379400
RightHand -3.035691 0.000000 6.525765
RightHandThumb1 -24.326973 -0.000000 -32.862282
LeftUpLeg -14.989132 44.059730 17.789164
LeftLeg 21.809807 -0.000000 -0.000000
LeftFoot -20.286072 -1.816403 -19.469948
LeftToeBase -2.957450 -0.000000 0.000000
RightUpLeg 4.740364 -12.820769 -32.113258
RightLeg 142.202578 -0.000000 -0.000000
RightFoot 37.324468 9.823456 17.429364
RightToeBase 6.542465 -0.000000 -0.000000
1065
root 8.859679 37.666823 4.838572 157.557204 -43.955771 -141.472677
Spine 9.382978 -4.522394 0.505955
Head 4.276790 -2.727683 23.472915
LeftShoulder -6.827200 14.745692 19.588662
LeftArm 16.709355 31.566706 -73.953851
LeftForeArm 30.202371 0.000000 26.988415
LeftHand -9.943894 -0.000000 -20.119114
LeftHandThumb1 -26.253704 0.000000 33.147579
RightShoulder -41.383054 -48.128068 31.764825
RightArm 46.132945 -17.407300 64.555103
RightForeArm 30.234367 -0.000000 3.117530
RightHand -2.740435 -0.000000 6.305160
RightHandThumb1 -24.326973 -0.000000 -32.862282
LeftUpLeg -14.867137 44.289524 17.883470
LeftLeg 21.401111 -0.000000 -0.000000
LeftFoot -20.038886 -2.219282 -19.673261
LeftToeBase -3.111331 -0.000000 0.000000
RightUpLeg 4.870577 -12.815511 -32.078472
RightLeg 142.070259 -0.000000 -0.000000
RightFoot 37.356381 9.904304 17.395638
RightToeBase 6.445932 -0.000000 -0.000000
1066
root 8.880986 37.693158 4.818501 157.449782 -44.053048 -141.307114
Spine 9.286599 -4.630760 0.498746
Head 4.239949 -2.731934 23.509353
LeftShoulder -6.800041 14.668717 19.642425
LeftArm 16.702726 31.609009 -74.014148
LeftForeArm 30.321166 -0.000000 27.010803
LeftHand -9.871299 -0.000000 -20.209809
LeftHandThumb1 -26.253704 0.000000 33.147579
RightShoulder -41.398131 -48.118257 31.766182
RightArm 46.127585 -17.418446 64.590773
RightForeArm 30.250673 -0.000000 2.889604
RightHand -2.652409 0.000000 5.937537
RightHandThumb1 -24.326973 -0.000000 -32.862282
LeftUpLeg -14.769206 44.513238 17.936604
LeftLeg 21.007472 -0.000000 -0.000000
LeftFoot -19.791637 -2.630755 -19.808995
LeftToeBase -3.475498 -0.000000 0.000000
RightUpLeg 5.004026 -12.831587 -32.074430
RightLeg 141.951469 -0.000000 -0.000000
RightFoot 37.357130 9.971374 17.245521
RightToeBase 6.241073 -0.000000 -0.000000
1067
root 8.901520 37.717623 4.799311 157.337338 -44.147760 -141.129245
Spine 9.191570 -4.739753 0.512930
Head 4.180742 -2.710531 23.536369
LeftShoulder -6.785484 14.596133 19.688324
LeftArm 16.704248 31.608871 -74.095517
LeftForeArm 30.365092 -0.000000 27.013801
LeftHand -9.828664 0.000000 -20.241281
LeftHandThumb1 -26.253704 0.000000 33.147579
RightShoulder -41.362655 -48.105618 31.717189
RightArm 46.028015 -17.355767 64.730619
RightForeArm 30.201684 -0.000000 2.768415
RightHand -2.740598 -0.000000 6.028434
RightHandThumb1 -24.326973 -0.000000 -32.862282
LeftUpLeg -14.677280 44.674175 18.007314
LeftLeg 20.645128 -0.000000 -0.000000
LeftFoot -19.563395 -3.105307 -20.013122
LeftToeBase -3.740844 -0.000000 0.000000
RightUpLeg 5.123199 -12.825113 -32.039117
RightLeg 141.855463 -0.000000 -0.000000
RightFoot 37.354806 9.946249 17.486709
RightToeBase 6.391413 -0.000000 -0.000000
1068
root 8.924735 37.739593 4.787519 157.232192 -44.296235 -140.945179
Spine 9.117819 -4.865024 0.529063
Head 4.046733 -2.685845 23.545624
LeftShoulder -6.770647 14.544781 19.718891
LeftArm 16.816635 31.671326 -74.090381
LeftForeArm 30.349080 -0.000000 27.008904
LeftHand -9.997302 -0.000000 -20.233735
LeftHandThumb1 -26.253704 0.000000 33.147579
RightShoulder -41.402652 -48.104507 31.751044
RightArm 45.983901 -17.261681 64.841579
RightForeArm 30.074072 -0.000000 2.697961
RightHand -2.584864 -0.000000 6.050989
RightHandThumb1 -24.326973 -0.000000 -32.862282
LeftUpLeg -14.658261 44.695984 18.010840
LeftLeg 20.312211 -0.000000 -0.000000
LeftFoot -19.370608 -3.468045 -20.167689
LeftToeBase -3.925964 -0.000000 0.000000
RightUpLeg 5.238982 -12.902146 -32.059651
RightLeg 141.776777 -0.000000 -0.000000
RightFoot 37.364574 9.995782 17.428401
RightToeBase 6.420546 -0.000000 -0.000000
1069
root 8.944065 37.759035 4.773239 157.124269 -44.406386 -140.799744
Spine 9.074197 -4.941402 0.531317
Head 3.904843 -2.668159 23.552484
LeftShoulder -6.758129 14.484016 19.747803
LeftArm 16.884178 31.552840 -74.172212
LeftForeArm 30.525846 -0.000000 26.952142
LeftHand -9.929034 -0.000000 -20.388253
LeftHandThumb1 -26.253704 0.000000 33.147579
RightShoulder -41.422344 -48.102082 31.752143
RightArm 45.926993 -17.205063 64.939495
RightForeArm 30.062844 0.000000 2.625517
RightHand -2.687944 -0.000000 6.098100
RightHandThumb1 -24.326973 -0.000000 -32.862282
LeftUpLeg -14.591342 44.780673 18.047348
LeftLeg 20.019794 -0.000000 -0.000000
LeftFoot -19.163963 -3.809948 -20.268548
LeftToeBase -4.328727 -0.000000 0.000000
RightUpLeg 5.347222 -12.947283 -32.091020
RightLeg 141.723360 -0.000000 -0.000000
RightFoot 37.323344 10.057243 17.255533
RightToeBase 6.393120 -0.000000 -0.000000
1070
root 8.961922 37.775854 4.758791 157.001828 -44.480172 -140.664373
Spine 9.064341 -4.978122 0.546819
Head 3.746829 -2.647596 23.555886
LeftShoulder -6.740575 14.450210 19.775761
LeftArm 16.959723 31.446278 -74.234920
LeftForeArm 30.598351 0.000000 26.970911
LeftHand -9.932761 -0.000000 -20.343870
LeftHandThumb1 -26.253704 0.000000 33.147579
RightShoulder -41.451627 -48.099267 31.764392
RightArm 45.894588 -17.185349 64.972381
RightForeArm 30.044598 -0.000000 2.599359
RightHand -2.554205 -0.000000 5.804385
RightHandThumb1 -24.326973 -0.000000 -32.862282
LeftUpLeg -14.482324 44.857273 18.124825
LeftLeg 19.739387 -0.000000 -0.000000
LeftFoot -18.984964 -4.076267 -20.361413
LeftToeBase -4.659012 -0.000000 0.000000
RightUpLeg 5.450121 -12.934062 -32.105745
RightLeg 141.682156 -0.000000 -0.000000
RightFoot 37.266420 10.086813 17.234041
RightToeBase 6.649728 -0.000000 -0.000000
